<?xml version="1.0" encoding="UTF-8"?>
<svg xmlns="http://www.w3.org/2000/svg" viewBox="1.4914285714285715 14.579999999999998 400.9960714285714 47.730000000000004" width="100%" height="100%">
  <path d="M1.50 59.28L1.50 59.28L1.62 58.08Q1.74 56.70 1.98 55.32L1.98 55.32Q2.28 53.94 2.64 51.81Q3 49.68 3.69 46.92Q4.38 44.16 5.22 41.16L5.22 41.16Q6.06 38.22 7.38 33.12L7.38 33.12Q8.70 28.08 9.03 26.43Q9.36 24.78 9.54 23.40L9.54 23.40Q9.78 21.84 10.14 20.58L10.14 20.58Q10.50 19.38 10.62 18.60L10.62 18.60Q10.86 17.76 11.04 16.98L11.04 16.98Q10.98 16.86 10.95 16.65Q10.92 16.44 11.22 16.02Q11.52 15.60 12.36 15.54L12.36 15.54Q13.32 15.42 13.71 15.81Q14.10 16.20 13.98 16.68L13.98 16.68L13.92 17.16Q13.98 17.88 13.98 18.66L13.98 18.66Q14.04 19.50 14.16 22.56L14.16 22.56Q14.22 25.56 14.34 27.48Q14.46 29.40 14.64 31.32L14.64 31.32Q14.82 33.30 15 35.34L15 35.34Q15.12 37.32 15.30 39.48L15.30 39.48Q15.48 41.64 15.78 45L15.78 45Q16.14 48.36 16.32 49.68Q16.50 51 16.68 52.14L16.68 52.14Q16.92 53.34 17.04 54.30L17.04 54.30Q17.16 55.14 17.46 56.40L17.46 56.40Q17.70 57.66 17.82 58.14L17.82 58.14Q17.94 58.74 18.06 59.34L18.06 59.34L18.12 59.88Q18.24 60.42 17.91 60.90Q17.58 61.38 17.04 61.47Q16.50 61.56 16.02 61.23Q15.54 60.90 15.48 60.36L15.48 60.36L15.36 59.76Q15.30 59.22 15.18 58.74L15.18 58.74Q15.06 58.20 14.82 56.94L14.82 56.94Q14.52 55.62 14.34 54.66L14.34 54.66Q14.22 53.76 14.04 52.62L14.04 52.62Q13.80 51.42 13.62 50.04Q13.44 48.66 13.08 45.24L13.08 45.24Q13.02 44.58 12.96 43.98L12.96 43.98L12.60 43.98Q12.06 44.04 10.86 44.04L10.86 44.04Q9.78 44.04 9.42 44.04L9.42 44.04Q8.94 44.10 8.28 44.16L8.28 44.16Q7.62 44.16 7.26 44.22L7.26 44.22L7.20 44.22Q6.72 45.96 6.30 47.58L6.30 47.58Q5.64 50.28 5.28 52.32L5.28 52.32Q4.92 54.42 4.68 55.80L4.68 55.80Q4.38 57.12 4.32 58.26L4.32 58.26L4.20 59.52Q4.14 60.06 3.72 60.45Q3.30 60.84 2.73 60.78Q2.16 60.72 1.80 60.30Q1.44 59.88 1.50 59.28ZM7.92 41.46L7.92 41.46Q8.04 41.46 8.10 41.46L8.10 41.46Q8.76 41.40 9.12 41.40L9.12 41.40Q9.66 41.34 10.86 41.34L10.86 41.34Q12 41.34 12.48 41.28L12.48 41.28L12.72 41.28Q12.66 40.44 12.60 39.72L12.60 39.72Q12.42 37.56 12.30 35.52L12.30 35.52Q12.12 33.54 12 31.56L12 31.56Q11.82 29.58 11.70 27.66L11.70 27.66Q11.64 27.36 11.64 27.06L11.64 27.06Q11.28 28.86 9.96 33.78L9.96 33.78Q8.76 38.58 7.92 41.46ZM24.30 16.14L24.30 16.14Q24.84 16.08 25.26 16.44Q25.68 16.80 25.74 17.34L25.74 17.34L25.80 17.82Q25.86 18.30 25.98 18.72L25.98 18.72Q26.04 19.20 26.16 19.74L26.16 19.74Q26.22 20.16 26.58 21.60L26.58 21.60Q26.94 23.04 27.12 24L27.12 24Q27.36 24.90 27.60 25.98Q27.84 27.06 28.32 28.86L28.32 28.86Q28.80 30.72 29.04 31.62L29.04 31.62Q29.22 32.52 29.40 33.24L29.40 33.24Q29.64 34.02 29.82 35.34L29.82 35.34Q29.82 35.52 29.88 35.76L29.88 35.76Q29.94 35.64 30 35.46L30 35.46Q30.78 33.42 31.08 32.52L31.08 32.52Q31.38 31.50 31.62 30.66L31.62 30.66Q31.92 29.82 32.40 28.26L32.40 28.26Q32.88 26.64 33.18 25.74L33.18 25.74Q33.48 24.90 33.78 24.06L33.78 24.06Q34.02 23.28 34.26 22.26L34.26 22.26Q34.50 21.24 34.68 20.70L34.68 20.70Q34.80 20.22 35.04 19.32L35.04 19.32Q35.28 18.30 35.40 17.70L35.40 17.70Q35.46 17.40 36.03 17.01Q36.60 16.62 37.32 16.62Q38.04 16.62 38.28 17.46L38.28 17.46Q38.46 18 38.58 18.72L38.58 18.72Q38.70 19.38 38.88 21.18L38.88 21.18Q39.12 23.04 39.18 25.26L39.18 25.26Q39.24 27.48 39.36 28.74L39.36 28.74Q39.48 30.12 39.57 32.91Q39.66 35.70 39.66 37.05Q39.66 38.40 39.66 39.78L39.66 39.78Q39.66 41.10 39.72 43.62L39.72 43.62Q39.72 46.14 39.72 47.25Q39.72 48.36 39.72 50.28L39.72 50.28Q39.66 52.14 39.66 52.92L39.66 52.92Q39.66 53.70 39.60 55.08L39.60 55.08Q39.60 56.34 39.60 56.82L39.60 56.82Q39.60 57.42 39.60 58.68L39.60 58.68L39.66 60Q39.66 60.54 39.27 60.93Q38.88 61.32 38.34 61.35Q37.80 61.38 37.38 60.99Q36.96 60.60 36.96 60.06L36.96 60.06L36.90 58.74Q36.90 57.42 36.90 56.88L36.90 56.88Q36.90 56.28 36.90 54.96L36.90 54.96Q36.96 53.70 36.96 52.92L36.96 52.92Q36.96 52.14 37.02 50.22L37.02 50.22Q37.02 48.30 37.02 47.22Q37.02 46.14 37.02 43.68L37.02 43.68Q36.96 41.16 36.96 39.78L36.96 39.78Q36.96 38.40 36.96 37.08L36.96 37.08Q36.96 35.70 36.84 33L36.84 33Q36.78 30.24 36.66 28.98L36.66 28.98Q36.54 27.60 36.48 25.38L36.48 25.38Q36.48 24.96 36.48 24.54L36.48 24.54Q36.42 24.72 36.36 24.90L36.36 24.90Q36.06 25.80 35.76 26.64L35.76 26.64Q35.46 27.48 34.98 28.98L34.98 28.98Q34.50 30.66 34.23 31.47Q33.96 32.28 33.66 33.30L33.66 33.30Q33.36 34.32 32.52 36.42L32.52 36.42Q31.62 38.76 30.72 39.72L30.72 39.72Q30.66 39.78 30.27 39.99Q29.88 40.20 29.31 40.41Q28.74 40.62 28.26 40.32Q27.78 40.02 27.66 39.18L27.66 39.18Q27.60 38.70 27.54 38.34L27.54 38.34Q27.42 37.92 27.36 37.44L27.36 37.44Q27.30 37.02 27.12 35.76L27.12 35.76Q26.94 34.56 26.82 33.90L26.82 33.90Q26.64 33.18 26.40 32.28L26.40 32.28Q26.16 31.38 25.68 29.58L25.68 29.58Q25.20 27.72 24.96 26.64L24.96 26.64Q24.90 26.34 24.84 25.98L24.84 25.98Q24.78 26.52 24.78 26.94L24.78 26.94Q24.72 29.58 24.72 31.08L24.72 31.08Q24.72 32.64 24.78 34.08L24.78 34.08Q24.78 35.52 24.78 38.40L24.78 38.40Q24.72 41.34 24.60 42.66L24.60 42.66Q24.48 43.98 24.36 45.36L24.36 45.36Q24.24 46.68 24.12 49.08L24.12 49.08Q24 51.42 23.94 52.44L23.94 52.44Q23.94 53.22 23.88 54L23.88 54Q23.82 54.66 23.82 55.56Q23.82 56.46 23.88 56.76L23.88 56.76Q23.88 57.06 24 57.60L24 57.60L24.18 58.26Q24.36 58.80 24.06 59.31Q23.76 59.82 23.22 59.94Q22.68 60.06 22.20 59.79Q21.72 59.52 21.60 58.98L21.60 58.98L21.42 58.32Q21.24 57.54 21.18 57.06L21.18 57.06Q21.12 56.58 21.12 55.56Q21.12 54.54 21.18 53.76L21.18 53.76Q21.24 53.10 21.24 52.38L21.24 52.38Q21.30 51.30 21.42 48.96L21.42 48.96Q21.54 46.50 21.66 45.12L21.66 45.12Q21.78 43.74 21.90 42.42L21.90 42.42Q22.02 41.16 22.08 38.34L22.08 38.34Q22.08 35.52 22.08 34.14L22.08 34.14Q22.02 32.70 22.02 31.14L22.02 31.14Q22.02 29.58 22.08 26.88L22.08 26.88Q22.20 24.18 22.26 23.10L22.26 23.10Q22.32 22.08 22.32 21.15Q22.32 20.22 22.32 19.62L22.32 19.62L22.32 17.58Q22.32 17.04 22.74 16.62Q23.16 16.20 23.70 16.20L23.70 16.20Q23.82 16.20 23.94 16.26L23.94 16.26Q24.06 16.14 24.30 16.14ZM50.40 18.96L50.40 18.96Q50.04 19.14 49.74 19.14L49.74 19.14L49.20 19.20Q49.08 19.20 49.02 19.20L49.02 19.20Q48.84 19.32 48.66 19.62L48.66 19.62Q48.30 20.04 47.82 20.64L47.82 20.64Q47.46 21.12 47.10 21.78L47.10 21.78Q46.74 22.56 46.50 23.16Q46.26 23.76 46.08 24.48L46.08 24.48Q45.84 25.08 45.84 25.68L45.84 25.68Q45.78 26.40 45.66 28.17Q45.54 29.94 45.48 30.78L45.48 30.78Q45.42 31.68 45.42 32.46L45.42 32.46L45.42 36.12Q45.42 36.96 45.48 37.92L45.48 37.92Q45.54 38.82 45.66 40.62L45.66 40.62Q45.78 42.48 45.78 43.32L45.78 43.32Q45.72 44.10 45.78 44.82L45.78 44.82Q45.78 45.54 45.84 46.20L45.84 46.20Q45.96 46.98 46.02 47.70L46.02 47.70Q46.08 48.36 46.26 49.80L46.26 49.80Q46.44 51.18 46.50 51.66L46.50 51.66Q46.62 52.14 46.80 52.74L46.80 52.74Q46.98 53.34 47.10 53.88L47.10 53.88Q47.22 54.36 47.52 54.96L47.52 54.96Q47.82 55.62 48.12 56.10L48.12 56.10Q48.42 56.58 48.72 57.06L48.72 57.06Q48.96 57.48 49.26 57.90L49.26 57.90Q49.44 58.08 49.74 58.29Q50.04 58.50 50.28 58.56L50.28 58.56Q50.58 58.62 51.06 58.56L51.06 58.56Q51.42 58.56 51.72 58.38L51.72 58.38Q52.08 58.08 52.62 57.45Q53.16 56.82 53.34 56.34L53.34 56.34Q53.52 55.74 53.64 55.38L53.64 55.38Q53.76 55.02 53.94 54.12L53.94 54.12Q54.18 53.10 54.36 52.56L54.36 52.56Q54.48 52.08 54.54 51.66L54.54 51.66Q54.66 51.12 54.84 50.10L54.84 50.10Q55.02 49.08 55.08 48.60L55.08 48.60Q55.14 48 55.20 47.52L55.20 47.52Q55.26 46.98 55.50 45.72L55.50 45.72Q55.68 44.52 55.74 43.86L55.74 43.86Q55.74 43.08 55.83 42.36Q55.92 41.64 56.04 41.04L56.04 41.04Q56.10 40.56 56.10 40.08L56.10 40.08Q56.10 39.54 56.16 38.25Q56.22 36.96 56.28 36.12L56.28 36.12Q56.28 35.34 56.28 34.68L56.28 34.68L56.28 33.30Q56.28 32.64 56.16 31.38L56.16 31.38Q55.98 30.06 55.92 29.52L55.92 29.52Q55.80 28.92 55.74 28.44L55.74 28.44Q55.68 27.96 55.56 26.94Q55.44 25.92 55.38 25.44L55.38 25.44Q55.32 25.02 55.20 24.54L55.20 24.54Q55.14 24 55.02 23.52L55.02 23.52Q55.02 23.16 54.78 22.68L54.78 22.68Q54.60 22.08 54.36 21.54L54.36 21.54Q54.18 21.12 53.82 20.46L53.82 20.46Q53.52 19.98 53.34 19.86L53.34 19.86Q53.04 19.62 52.56 19.44L52.56 19.44Q51.90 19.14 51.48 19.02L51.48 19.02Q51.24 18.90 51.12 18.90L51.12 18.90Q50.76 18.90 50.40 18.96ZM49.14 16.50L49.26 16.50Q49.56 16.32 49.86 16.32L49.86 16.32L50.22 16.26Q50.64 16.26 51 16.20L51 16.20Q51.66 16.20 52.32 16.44L52.32 16.44Q52.86 16.62 53.58 16.92L53.58 16.92Q54.48 17.28 54.96 17.70L54.96 17.70Q55.56 18.12 56.16 19.08L56.16 19.08Q56.64 19.92 56.88 20.52L56.88 20.52Q57.06 21.06 57.30 21.72L57.30 21.72Q57.60 22.50 57.72 23.16L57.72 23.16Q57.78 23.58 57.84 24.06L57.84 24.06Q57.96 24.54 58.02 25.08L58.02 25.08Q58.14 25.56 58.26 26.58L58.26 26.58Q58.38 27.60 58.44 28.14L58.44 28.14Q58.50 28.56 58.56 29.10L58.56 29.10Q58.68 29.64 58.86 31.08L58.86 31.08Q58.98 32.52 58.98 33.30L58.98 33.30L58.98 34.68Q58.98 35.40 58.92 36.24L58.92 36.24Q58.92 37.08 58.86 38.34L58.86 38.34Q58.80 39.60 58.80 40.14L58.80 40.14Q58.80 40.80 58.68 41.46L58.68 41.46Q58.62 42 58.50 42.66L58.50 42.66Q58.44 43.32 58.44 43.98L58.44 43.98Q58.38 44.82 58.14 46.14L58.14 46.14Q57.96 47.34 57.90 47.82L57.90 47.82Q57.84 48.36 57.78 48.90L57.78 48.90Q57.72 49.50 57.48 50.58L57.48 50.58Q57.30 51.60 57.24 52.08L57.24 52.08Q57.12 52.68 56.94 53.34L56.94 53.34Q56.82 53.82 56.58 54.66L56.58 54.66Q56.40 55.68 56.25 56.13Q56.10 56.58 55.86 57.30L55.86 57.30Q55.50 58.20 54.72 59.16L54.72 59.16Q53.94 60.12 53.16 60.60L53.16 60.60Q52.38 61.14 51.36 61.26L51.36 61.26Q50.46 61.38 49.74 61.20L49.74 61.20Q48.96 61.02 48.24 60.57Q47.52 60.12 47.10 59.46L47.10 59.46Q46.74 58.98 46.44 58.50L46.44 58.50Q46.14 58.02 45.78 57.48L45.78 57.48Q45.42 56.88 45.06 56.10L45.06 56.10Q44.70 55.26 44.52 54.66L44.52 54.66Q44.34 54.12 44.16 53.46L44.16 53.46Q43.98 52.80 43.86 52.20L43.86 52.20Q43.74 51.60 43.56 50.10L43.56 50.10Q43.38 48.66 43.32 47.94L43.32 47.94Q43.26 47.28 43.14 46.50L43.14 46.50Q43.08 45.72 43.08 44.88L43.08 44.88Q43.02 44.10 43.08 43.26L43.08 43.26Q43.08 42.60 42.96 40.80L42.96 40.80Q42.84 39 42.78 38.04L42.78 38.04Q42.72 37.02 42.72 36.12L42.72 36.12L42.72 32.46Q42.72 31.56 42.78 30.66L42.78 30.66Q42.84 29.76 42.96 27.99Q43.08 26.22 43.14 25.44L43.14 25.44Q43.20 24.54 43.44 23.70L43.44 23.70Q43.68 22.92 43.98 22.17Q44.28 21.42 44.70 20.58L44.70 20.58Q45.18 19.62 45.72 18.96L45.72 18.96Q46.20 18.42 46.50 18L46.50 18Q46.92 17.34 47.52 16.98L47.52 16.98Q48.24 16.50 49.14 16.50L49.14 16.50ZM73.98 20.28L73.98 20.28L73.86 19.68Q73.74 19.26 73.56 18.84L73.56 18.84Q73.50 18.78 73.38 18.78L73.38 18.78Q73.02 18.72 72.90 18.72L72.90 18.72Q72.54 18.90 72.12 19.26L72.12 19.26Q71.64 19.62 70.98 20.40L70.98 20.40Q70.38 21.12 69.72 22.20L69.72 22.20Q69.12 23.34 67.86 26.46L67.86 26.46Q66.66 29.70 66.18 31.38Q65.70 33.06 65.34 34.80L65.34 34.80Q64.98 36.54 64.80 39.99Q64.62 43.44 64.74 44.88L64.74 44.88Q64.80 46.32 64.98 47.88Q65.16 49.44 65.40 50.88L65.40 50.88Q65.64 52.26 66.24 54.30L66.24 54.30Q66.90 56.34 67.26 56.94Q67.62 57.54 68.01 57.99Q68.40 58.44 68.76 58.74L68.76 58.74Q69.06 58.98 69.90 59.28L69.90 59.28Q70.56 59.46 70.86 59.40L70.86 59.40Q71.28 59.28 71.88 58.98L71.88 58.98Q72.48 58.68 73.50 57.54L73.50 57.54Q74.52 56.46 74.76 55.98L74.76 55.98Q75 55.26 75.30 54.48L75.30 54.48Q75.54 53.76 75.66 52.26L75.66 52.26Q75.84 50.70 75.78 49.92L75.78 49.92Q75.72 49.08 75.60 48.30Q75.48 47.52 75.39 46.83Q75.30 46.14 75.06 45.18L75.06 45.18Q74.82 44.16 74.76 43.62L74.76 43.62Q74.70 43.38 74.64 43.02L74.64 43.02Q74.28 42.96 73.74 42.96L73.74 42.96Q72.90 42.90 72.12 42.96L72.12 42.96L71.28 43.08Q70.74 43.14 70.29 42.78Q69.84 42.42 69.78 41.85Q69.72 41.28 70.08 40.86Q70.44 40.44 70.98 40.38L70.98 40.38L71.88 40.26Q72.84 40.20 73.86 40.26L73.86 40.26Q75 40.26 75.72 40.56L75.72 40.56Q76.86 40.98 77.22 42.12L77.22 42.12Q77.40 42.78 77.46 43.26L77.46 43.26Q77.46 43.68 77.70 44.64L77.70 44.64Q77.94 45.66 78.06 46.38Q78.18 47.10 78.30 47.94Q78.42 48.78 78.48 49.74L78.48 49.74Q78.54 50.70 78.36 52.50L78.36 52.50Q78.18 54.36 77.88 55.32L77.88 55.32Q77.58 56.22 77.22 57L77.22 57Q76.86 57.96 75.48 59.40L75.48 59.40Q74.16 60.84 73.20 61.32L73.20 61.32Q72.24 61.86 71.52 62.04L71.52 62.04Q70.56 62.28 69.06 61.86L69.06 61.86Q67.74 61.44 67.08 60.90L67.08 60.90Q66.48 60.42 65.94 59.76Q65.40 59.10 64.92 58.26Q64.44 57.42 63.72 55.14L63.72 55.14Q63 52.92 62.70 51.36L62.70 51.36Q62.46 49.80 62.28 48.18L62.28 48.18Q62.10 46.56 62.04 45.06L62.04 45.06Q61.92 43.50 62.13 39.84Q62.34 36.18 62.70 34.32L62.70 34.32Q63.06 32.40 63.57 30.60Q64.08 28.80 65.34 25.50L65.34 25.50Q66.66 22.20 67.38 20.88L67.38 20.88Q68.16 19.56 68.94 18.60L68.94 18.60Q69.78 17.70 70.44 17.16L70.44 17.16Q71.16 16.56 71.82 16.26L71.82 16.26Q72.78 15.84 74.04 16.14L74.04 16.14Q75.48 16.50 75.96 17.64L75.96 17.64Q76.26 18.30 76.44 19.02L76.44 19.02L76.62 19.62Q76.74 20.10 76.47 20.61Q76.20 21.12 75.66 21.24Q75.12 21.36 74.64 21.09Q74.16 20.82 73.98 20.28ZM84.18 18.72L84.18 18.72L84.18 19.08Q84.18 19.50 84.18 20.46L84.18 20.46Q84.24 21.48 84.24 22.26Q84.24 23.04 84.30 24.06L84.30 24.06Q84.30 25.08 84.36 26.22L84.36 26.22Q84.42 27.42 84.45 28.62Q84.48 29.82 84.48 30.96L84.48 30.96Q84.54 32.04 84.54 33.30L84.54 33.30Q84.60 34.62 84.60 35.88L84.60 35.88L84.60 42.66Q84.60 43.68 84.60 44.64L84.60 44.64Q84.60 45.60 84.54 46.56L84.54 46.56Q84.48 47.52 84.48 48.30L84.48 48.30Q84.48 49.14 84.48 50.04L84.48 50.04Q84.42 50.88 84.36 51.60L84.36 51.60Q84.36 52.26 84.42 53.52L84.42 53.52Q84.54 54.78 84.54 55.14L84.54 55.14Q84.60 55.44 84.78 56.04L84.78 56.04Q84.90 56.58 85.32 57.30L85.32 57.30Q85.68 58.08 85.98 58.44L85.98 58.44Q86.16 58.68 86.64 58.98L86.64 58.98Q87.24 59.34 87.60 59.43Q87.96 59.52 88.38 59.58L88.38 59.58Q88.80 59.64 89.22 59.58L89.22 59.58Q89.52 59.58 89.82 59.46L89.82 59.46Q90.12 59.34 90.54 59.16L90.54 59.16Q90.72 59.04 91.26 58.50L91.26 58.50Q91.86 57.84 91.98 57.60L91.98 57.60Q92.16 57.30 92.40 56.76L92.40 56.76Q92.64 56.22 92.76 55.62L92.76 55.62Q92.94 55.02 93.30 53.58L93.30 53.58Q93.60 52.20 93.72 51.30L93.72 51.30Q93.84 50.34 94.02 49.44L94.02 49.44Q94.14 48.72 94.26 47.64L94.26 47.64Q94.32 46.50 94.44 45.54L94.44 45.54Q94.50 44.58 94.68 42.36L94.68 42.36Q94.80 40.20 94.83 38.97Q94.86 37.74 94.86 36.72L94.86 36.72L94.86 31.74Q94.86 30.60 94.74 28.56L94.74 28.56Q94.56 26.40 94.56 25.62L94.56 25.62Q94.50 24.96 94.44 24.24L94.44 24.24Q94.32 23.40 94.26 22.86L94.26 22.86Q94.20 22.26 94.20 21.54L94.20 21.54Q94.14 20.94 94.08 20.46L94.08 20.46L94.02 19.98Q93.90 19.44 94.23 18.99Q94.56 18.54 95.13 18.45Q95.70 18.36 96.15 18.69Q96.60 19.02 96.66 19.56L96.66 19.56L96.78 20.04Q96.84 20.64 96.90 21.42L96.90 21.42Q96.90 22.08 96.96 22.56L96.96 22.56Q97.02 23.10 97.08 23.88L97.08 23.88Q97.20 24.78 97.26 25.56L97.26 25.56Q97.26 26.22 97.44 28.32L97.44 28.32Q97.56 30.54 97.56 31.74L97.56 31.74L97.56 36.72Q97.56 37.80 97.53 39.06Q97.50 40.32 97.35 42.57Q97.20 44.82 97.11 45.78Q97.02 46.74 96.96 47.88L96.96 47.88Q96.84 49.08 96.66 49.98L96.66 49.98Q96.54 50.76 96.42 51.66L96.42 51.66Q96.30 52.68 95.88 54.24L95.88 54.24Q95.52 55.68 95.40 56.34L95.40 56.34Q95.16 57.06 94.92 57.78L94.92 57.78Q94.62 58.50 94.32 58.98L94.32 58.98Q94.02 59.46 93.24 60.30L93.24 60.30Q92.34 61.26 91.74 61.56L91.74 61.56Q91.26 61.80 90.72 61.98L90.72 61.98Q90.12 62.22 89.46 62.28L89.46 62.28Q88.80 62.34 88.14 62.28L88.14 62.28Q87.48 62.22 86.82 62.04L86.82 62.04Q86.10 61.80 85.26 61.26L85.26 61.26Q84.30 60.72 83.82 60.06L83.82 60.06Q83.40 59.52 82.92 58.56L82.92 58.56Q82.38 57.60 82.14 56.76L82.14 56.76Q81.96 55.98 81.90 55.56L81.90 55.56Q81.84 55.08 81.72 53.70L81.72 53.70Q81.66 52.32 81.66 51.48L81.66 51.48Q81.72 50.76 81.78 49.92L81.78 49.92Q81.78 49.08 81.78 48.30L81.78 48.30Q81.78 47.46 81.84 46.50L81.84 46.50Q81.90 45.54 81.90 44.64L81.90 44.64Q81.90 43.68 81.90 42.66L81.90 42.66L81.90 35.88Q81.90 34.68 81.84 33.36L81.84 33.36Q81.84 32.10 81.78 30.96L81.78 30.96Q81.78 29.88 81.75 28.71Q81.72 27.54 81.66 26.40L81.66 26.40Q81.60 25.20 81.60 24.12L81.60 24.12Q81.54 23.10 81.54 22.32Q81.54 21.54 81.48 20.52L81.48 20.52Q81.48 19.50 81.48 19.08L81.48 19.08L81.48 18.72Q81.48 18.18 81.87 17.76Q82.26 17.34 82.83 17.34Q83.40 17.34 83.79 17.76Q84.18 18.18 84.18 18.72ZM110.22 18.96L110.22 18.96L110.22 18.60Q110.22 18.18 110.22 17.76L110.22 17.76Q110.22 17.76 110.22 17.70L110.22 17.70Q110.16 17.58 109.92 17.40L109.92 17.40Q109.80 17.34 109.32 17.28L109.32 17.28Q108.66 17.28 108.30 17.40L108.30 17.40Q107.94 17.46 106.98 18.24L106.98 18.24Q105.96 19.02 105.54 19.56L105.54 19.56Q105.06 20.22 104.70 20.94L104.70 20.94Q104.34 21.66 104.10 22.56L104.10 22.56Q103.80 23.58 103.62 24.54L103.62 24.54Q103.44 25.44 103.38 26.52L103.38 26.52Q103.38 27.54 103.80 29.76L103.80 29.76Q104.22 32.04 104.70 33.24L104.70 33.24Q105.18 34.50 105.66 35.46L105.66 35.46Q106.20 36.48 106.74 37.56L106.74 37.56Q107.34 38.64 108.00 39.66L108.00 39.66Q108.66 40.74 109.68 42.90L109.68 42.90Q110.64 45 111.00 46.20L111.00 46.20Q111.42 47.46 111.54 48.48L111.54 48.48Q111.66 49.44 111.78 50.52L111.78 50.52Q111.84 51.72 111.54 53.94L111.54 53.94Q111.18 56.10 110.82 57.15Q110.46 58.20 109.92 59.04L109.92 59.04Q109.38 60 108.84 60.54L108.84 60.54Q108.24 61.14 106.92 61.68L106.92 61.68Q105.42 62.28 104.46 62.10L104.46 62.10Q103.74 61.92 103.08 61.62L103.08 61.62Q102.30 61.32 101.58 60.66L101.58 60.66L101.04 60.18Q100.62 59.82 100.56 59.25Q100.50 58.68 100.89 58.26Q101.28 57.84 101.82 57.81Q102.36 57.78 102.78 58.14L102.78 58.14L103.32 58.62Q103.74 58.98 104.10 59.16L104.10 59.16Q104.52 59.34 105.00 59.46L105.00 59.46Q105.30 59.46 105.90 59.16L105.90 59.16Q106.68 58.86 106.92 58.62L106.92 58.62Q107.22 58.32 107.64 57.66L107.64 57.66Q108.00 57 108.30 56.22L108.30 56.22Q108.60 55.44 108.84 53.52L108.84 53.52Q109.14 51.66 109.08 50.76L109.08 50.76Q108.96 49.74 108.84 48.84L108.84 48.84Q108.72 48 108.42 46.98Q108.12 45.96 107.22 44.01Q106.32 42.06 105.72 41.10L105.72 41.10Q105.00 40.02 104.40 38.88L104.40 38.88Q103.80 37.74 103.26 36.66L103.26 36.66Q102.72 35.58 102.18 34.20L102.18 34.20Q101.58 32.76 101.10 30.24L101.10 30.24Q100.68 27.78 100.68 26.46L100.68 26.46Q100.74 25.14 100.98 24L100.98 24Q101.22 22.98 101.52 21.84L101.52 21.84Q101.82 20.70 102.30 19.74L102.30 19.74Q102.78 18.78 103.38 18L103.38 18Q104.04 17.10 105.36 16.08L105.36 16.08Q106.74 15 107.58 14.76L107.58 14.76Q108.36 14.58 109.44 14.58L109.44 14.58Q110.76 14.64 111.54 15.24L111.54 15.24Q112.20 15.78 112.56 16.38L112.56 16.38Q112.98 17.10 112.92 17.88L112.92 17.88Q112.92 18.24 112.92 18.60L112.92 18.60L112.92 18.96Q112.92 19.50 112.53 19.89Q112.14 20.28 111.57 20.28Q111.00 20.28 110.61 19.89Q110.22 19.50 110.22 18.96ZM142.80 16.56L142.80 16.56L143.16 16.56Q143.52 16.56 144.48 16.44L144.48 16.44Q145.62 16.38 146.28 16.38L146.28 16.38Q146.94 16.38 147.60 16.32L147.60 16.32Q148.38 16.26 149.34 16.26L149.34 16.26Q150.18 16.32 150.87 16.35Q151.56 16.38 152.16 16.44L152.16 16.44Q152.64 16.44 153 16.44L153 16.44L153.48 16.38Q154.02 16.32 154.44 16.68Q154.86 17.04 154.92 17.61Q154.98 18.18 154.62 18.60Q154.26 19.02 153.72 19.08L153.72 19.08L153.24 19.14Q152.64 19.14 151.92 19.14L151.92 19.14Q151.38 19.08 150.72 19.02L150.72 19.02Q150.12 19.02 149.46 18.96L149.46 18.96Q149.64 19.74 149.58 20.76L149.58 20.76Q149.58 21.60 149.58 22.20L149.58 22.20L149.58 23.52Q149.58 24.18 149.52 25.83Q149.46 27.48 149.46 28.44L149.46 28.44Q149.40 29.28 149.34 30.42L149.34 30.42Q149.34 31.38 149.34 33.42L149.34 33.42Q149.34 35.46 149.34 36.54L149.34 36.54Q149.34 37.62 149.40 38.52L149.40 38.52Q149.40 39.48 149.40 40.38L149.40 40.38Q149.40 41.28 149.34 42.96L149.34 42.96Q149.34 44.58 149.34 45.30L149.34 45.30L149.34 47.52Q149.34 48.96 149.34 49.62L149.34 49.62Q149.34 50.34 149.34 51L149.34 51Q149.34 51.54 149.22 52.68L149.22 52.68Q149.16 53.64 149.16 54L149.16 54Q149.16 54 149.16 54.90L149.16 54.90Q149.16 55.44 149.10 56.40L149.10 56.40Q148.98 57.36 148.92 58.02L148.92 58.02Q148.86 58.62 148.86 59.04L148.86 59.04L148.86 60.36Q148.86 60.90 148.44 61.29Q148.02 61.68 147.48 61.68Q146.94 61.68 146.55 61.29Q146.16 60.90 146.16 60.36L146.16 60.36L146.16 59.04Q146.16 58.44 146.22 57.72L146.22 57.72Q146.28 57.12 146.40 56.16L146.40 56.16Q146.46 55.32 146.46 54.90L146.46 54.90L146.46 54Q146.46 53.52 146.52 52.44L146.52 52.44Q146.64 51.48 146.64 50.88L146.64 50.88Q146.64 50.28 146.64 49.68L146.64 49.68Q146.64 48.96 146.64 47.52L146.64 47.52L146.64 45.30Q146.64 44.58 146.64 42.90L146.64 42.90Q146.70 41.28 146.70 40.41Q146.70 39.54 146.70 38.58L146.70 38.58Q146.64 36.84 146.64 36.60L146.64 36.60Q146.64 35.52 146.64 33.42L146.64 33.42Q146.64 31.26 146.64 30.30L146.64 30.30Q146.70 29.88 146.73 29.19Q146.76 28.50 146.76 28.32L146.76 28.32Q146.76 27.42 146.82 25.77Q146.88 24.12 146.88 23.52L146.88 23.52L146.88 22.20Q146.88 21.54 146.88 20.64L146.88 20.64Q146.94 20.04 146.82 19.74L146.82 19.74L146.70 19.20Q146.64 19.14 146.64 19.08L146.64 19.08Q146.52 19.08 146.40 19.08L146.40 19.08Q145.74 19.08 144.72 19.14L144.72 19.14Q143.58 19.26 143.16 19.26L143.16 19.26L142.80 19.26Q142.20 19.26 141.81 18.84Q141.42 18.42 141.42 17.88Q141.42 17.34 141.81 16.95Q142.20 16.56 142.80 16.56ZM160.62 17.58L160.62 17.58L160.62 18.42Q160.62 19.14 160.68 19.86L160.68 19.86Q160.74 20.70 160.80 21.72L160.80 21.72Q160.86 22.68 161.16 25.26Q161.46 27.84 161.58 29.34L161.58 29.34Q161.70 30.84 161.82 32.40L161.82 32.40Q161.94 34.02 162.03 37.29Q162.12 40.56 162.12 42L162.12 42Q162.12 43.44 162.12 45.06L162.12 45.06Q162.18 46.68 162.24 48.18L162.24 48.18Q162.24 49.38 162.36 51.30L162.36 51.30Q162.48 50.22 162.84 48.24L162.84 48.24Q163.26 46.02 163.44 44.88L163.44 44.88Q163.62 43.74 163.86 42.60L163.86 42.60Q164.04 41.58 164.40 39.96L164.40 39.96Q164.70 38.46 164.82 37.92L164.82 37.92Q164.88 37.38 164.94 36.96L164.94 36.96Q165 36.48 165.12 36L165.12 36Q165.18 35.40 165.42 35.10Q165.66 34.80 165.96 34.80Q166.26 34.80 166.59 34.92Q166.92 35.04 167.22 35.25Q167.52 35.46 167.76 35.70Q168 35.94 168.18 36.12L168.18 36.12L168.30 36.24Q168.96 37.50 169.20 38.46L169.20 38.46Q169.38 39.18 169.62 39.90L169.62 39.90Q169.86 40.74 170.16 42.54L170.16 42.54Q170.46 44.22 170.64 45.12L170.64 45.12Q170.88 46.02 171.06 46.98L171.06 46.98Q171.24 47.88 171.60 49.50L171.60 49.50Q171.60 49.62 171.66 49.86L171.66 49.86Q171.78 48.78 171.96 47.28L171.96 47.28Q172.26 44.58 172.47 42.87Q172.68 41.16 172.92 39.48L172.92 39.48Q173.16 37.92 173.52 34.80L173.52 34.80Q173.94 31.68 174.06 30.60L174.06 30.60Q174.18 29.52 174.30 28.38L174.30 28.38Q174.42 27.24 174.42 25.68L174.42 25.68Q174.42 24.06 174.42 23.22L174.42 23.22L174.42 21.72Q174.42 21.12 174.36 20.16L174.36 20.16Q174.36 19.26 174.42 18.54L174.42 18.54Q174.42 17.94 174.42 17.58L174.42 17.58L174.42 17.16Q174.42 16.62 174.81 16.20Q175.20 15.78 175.77 15.78Q176.34 15.78 176.73 16.20Q177.12 16.62 177.12 17.16L177.12 17.16L177.12 17.58Q177.12 18 177.06 18.72L177.06 18.72Q177.06 19.26 177.06 20.04L177.06 20.04Q177.12 21.06 177.12 21.72L177.12 21.72L177.12 23.22Q177.12 24.06 177.12 25.68L177.12 25.68Q177.12 27.42 177 28.62L177 28.62Q176.88 29.76 176.76 30.90L176.76 30.90Q176.58 32.04 176.22 35.16L176.22 35.16Q175.86 38.28 175.62 39.90L175.62 39.90Q175.38 41.52 175.14 43.20L175.14 43.20Q174.96 44.88 174.63 47.58Q174.30 50.28 174.18 51.54L174.18 51.54Q174.06 52.74 174.06 53.94L174.06 53.94Q174.06 55.20 174 57.03Q173.94 58.86 173.88 59.34L173.88 59.34Q173.88 59.76 173.88 60.12L173.88 60.12Q173.94 60.84 172.68 61.14Q171.42 61.44 171.18 60.72L171.18 60.72Q171 60.24 170.82 59.34L170.82 59.34Q170.64 58.62 170.49 57.96Q170.34 57.30 170.22 56.82L170.22 56.82Q170.10 56.34 170.04 55.74L170.04 55.74Q169.98 55.32 169.74 54.18L169.74 54.18Q169.50 52.98 169.38 52.26L169.38 52.26Q169.26 51.66 168.96 50.04L168.96 50.04Q168.60 48.42 168.42 47.46L168.42 47.46Q168.18 46.56 168 45.66L168 45.66Q167.82 44.70 167.52 42.96L167.52 42.96Q167.22 41.34 167.04 40.62L167.04 40.62Q166.68 42.18 166.50 43.14L166.50 43.14Q166.26 44.16 166.14 45.30L166.14 45.30Q165.96 46.44 165.54 48.72L165.54 48.72Q165.12 50.94 165.06 51.84L165.06 51.84Q164.94 52.92 164.52 55.32L164.52 55.32Q164.16 57.60 163.98 58.68L163.98 58.68Q163.80 59.76 163.62 60.60L163.62 60.60Q163.56 60.90 162.93 61.32Q162.30 61.74 161.61 61.71Q160.92 61.68 160.68 60.78L160.68 60.78Q160.50 60.12 160.32 58.92L160.32 58.92Q160.14 57.78 160.08 57.06L160.08 57.06Q160.02 56.34 159.96 55.50L159.96 55.50Q159.90 54.66 159.72 52.26L159.72 52.26Q159.54 49.80 159.51 48.24Q159.48 46.68 159.42 45.12L159.42 45.12Q159.42 43.44 159.42 42L159.42 42Q159.42 40.56 159.33 37.35Q159.24 34.14 159.12 32.58L159.12 32.58Q159 31.08 158.88 29.58L158.88 29.58Q158.76 28.08 158.46 25.56L158.46 25.56Q158.16 22.92 158.10 21.90L158.10 21.90Q158.04 20.88 157.98 20.10L157.98 20.10Q157.92 19.26 157.92 18.36L157.92 18.36L157.92 17.52Q157.92 16.98 158.34 16.59Q158.76 16.20 159.30 16.20Q159.84 16.20 160.23 16.62Q160.62 17.04 160.62 17.58ZM181.14 17.64L181.14 17.64Q181.14 17.10 181.50 16.68Q181.86 16.26 182.40 16.20L182.40 16.20L183.00 16.20Q183.60 16.14 184.92 16.14L184.92 16.14Q186.24 16.14 186.90 16.26L186.90 16.26Q187.38 16.32 187.98 16.38L187.98 16.38Q188.52 16.44 189.00 16.50L189.00 16.50L189.54 16.56Q190.08 16.56 190.44 17.01Q190.80 17.46 190.77 18Q190.74 18.54 190.29 18.90Q189.84 19.26 189.30 19.26L189.30 19.26L188.76 19.20Q188.22 19.14 187.56 19.08L187.56 19.08Q186.96 18.96 186.48 18.90L186.48 18.90Q186.06 18.84 184.92 18.84L184.92 18.84Q184.62 18.84 184.38 18.84L184.38 18.84L184.32 19.32Q184.20 20.10 184.14 20.64L184.14 20.64Q184.14 21.06 184.08 22.74L184.08 22.74Q184.02 24.54 183.96 25.80L183.96 25.80Q183.84 26.94 183.84 28.14L183.84 28.14Q183.78 29.40 183.72 32.16L183.72 32.16Q183.60 34.86 183.54 36.36L183.54 36.36Q183.48 36.96 183.42 37.50L183.42 37.50L183.48 37.50L183.96 37.56Q184.38 37.56 185.22 37.50L185.22 37.50Q186.12 37.38 186.60 37.32L186.60 37.32L187.08 37.26Q187.62 37.20 188.07 37.56Q188.52 37.92 188.58 38.46Q188.64 39 188.31 39.45Q187.98 39.90 187.44 39.96L187.44 39.96L186.90 40.02Q186.36 40.08 185.46 40.14L185.46 40.14Q184.50 40.26 183.90 40.20L183.90 40.20L183.36 40.20Q183.30 40.20 183.30 40.20L183.30 40.20Q183.18 41.64 183.12 43.92L183.12 43.92Q182.94 46.92 182.94 48.06L182.94 48.06Q182.88 49.20 182.82 51.06L182.82 51.06Q182.82 52.92 182.85 53.67Q182.88 54.42 183.00 55.56Q183.12 56.70 183.18 57.18L183.18 57.18Q183.24 57.66 183.36 58.38L183.36 58.38Q183.36 58.68 183.42 58.98L183.42 58.98Q183.90 59.04 184.56 59.04L184.56 59.04Q185.70 59.04 186.42 59.04L186.42 59.04Q187.14 58.98 188.40 58.92L188.40 58.92L189.66 58.80Q190.20 58.74 190.62 59.13Q191.04 59.52 191.10 60.06Q191.16 60.60 190.77 61.02Q190.38 61.44 189.84 61.50L189.84 61.50L188.58 61.56Q187.32 61.68 186.54 61.71Q185.76 61.74 184.56 61.74L184.56 61.74Q183.30 61.74 182.46 61.56L182.46 61.56Q181.86 61.44 181.32 60.99Q180.78 60.54 180.78 59.70L180.78 59.70Q180.78 59.40 180.66 58.74L180.66 58.74Q180.54 57.96 180.48 57.54L180.48 57.54Q180.42 57 180.30 55.86L180.30 55.86Q180.18 54.60 180.15 53.79Q180.12 52.98 180.12 51.06L180.12 51.06Q180.18 49.08 180.24 47.91Q180.30 46.74 180.42 43.80L180.42 43.80Q180.54 40.86 180.66 39.30L180.66 39.30Q180.72 37.68 180.84 36.24L180.84 36.24Q180.90 34.74 181.02 32.04L181.02 32.04Q181.08 29.34 181.14 28.08L181.14 28.08Q181.14 26.82 181.26 25.56L181.26 25.56Q181.32 24.42 181.38 22.68L181.38 22.68Q181.44 20.88 181.50 20.28L181.50 20.28Q181.56 19.80 181.62 19.02L181.62 19.02L181.68 18.66Q181.20 18.24 181.14 17.64ZM194.88 19.14L194.88 19.14Q194.52 18.72 194.61 18.15Q194.70 17.58 195.12 17.22L195.12 17.22L195.78 16.74Q196.62 16.02 197.64 15.72L197.64 15.72Q198.60 15.48 199.20 15.54L199.20 15.54Q199.92 15.60 201.06 16.20L201.06 16.20Q202.20 16.86 202.74 17.64L202.74 17.64Q203.16 18.30 203.46 19.05Q203.76 19.80 204.12 21.42L204.12 21.42Q204.48 22.98 204.54 23.82L204.54 23.82Q204.66 24.60 204.66 26.28L204.66 26.28Q204.66 27.96 204.48 28.86L204.48 28.86Q204.36 29.76 203.94 31.32L203.94 31.32Q203.52 32.88 203.28 33.57Q203.04 34.26 202.74 34.98Q202.44 35.70 201.90 36.90L201.90 36.90Q201.36 38.10 201.06 38.58L201.06 38.58Q200.76 39 200.22 39.66L200.22 39.66Q199.80 40.26 199.56 40.62L199.56 40.62Q199.32 40.92 199.08 41.28L199.08 41.28Q199.38 41.82 199.92 42.42L199.92 42.42Q200.76 43.38 201.09 43.83Q201.42 44.28 202.02 45.30L202.02 45.30Q202.68 46.26 202.98 46.83Q203.28 47.40 203.76 48.48L203.76 48.48Q204.24 49.62 204.66 50.70L204.66 50.70Q205.08 51.90 205.20 52.44L205.20 52.44Q205.38 52.92 205.65 53.97Q205.92 55.02 206.04 55.44Q206.16 55.86 206.40 56.82L206.40 56.82Q206.70 57.84 206.82 58.68L206.82 58.68Q206.88 59.34 206.94 59.76L206.94 59.76L207.06 60.24Q207.24 60.78 206.94 61.26Q206.64 61.74 206.10 61.86Q205.56 61.98 205.08 61.71Q204.60 61.44 204.48 60.90L204.48 60.90L204.36 60.36Q204.18 59.76 204.12 58.98L204.12 58.98Q204.06 58.38 203.82 57.60L203.82 57.60Q203.52 56.64 203.40 56.16L203.40 56.16Q203.28 55.74 203.04 54.66L203.04 54.66Q202.80 53.76 202.62 53.16L202.62 53.16Q202.50 52.68 202.14 51.66L202.14 51.66Q201.72 50.58 201.24 49.56L201.24 49.56Q200.82 48.54 200.58 48.09Q200.34 47.64 199.77 46.74Q199.20 45.84 198.90 45.45Q198.60 45.06 197.88 44.22L197.88 44.22Q197.58 43.80 197.28 43.50L197.28 43.50Q197.28 43.80 197.28 44.04L197.28 44.04Q197.16 46.20 197.10 48.78L197.10 48.78Q197.04 51.36 196.92 53.16L196.92 53.16Q196.80 54.90 196.80 55.62L196.80 55.62Q196.74 56.40 196.74 57.42L196.74 57.42Q196.74 58.32 196.80 58.98L196.80 58.98L196.92 59.76Q196.98 60.30 196.65 60.75Q196.32 61.20 195.78 61.26Q195.24 61.32 194.79 60.99Q194.34 60.66 194.22 60.12L194.22 60.12L194.16 59.34Q194.04 58.50 194.04 57.36L194.04 57.36Q194.04 56.34 194.10 55.56L194.10 55.56Q194.10 54.78 194.22 52.98L194.22 52.98Q194.34 51.24 194.40 48.72L194.40 48.72Q194.46 46.14 194.58 43.92L194.58 43.92Q194.70 41.76 194.73 38.58Q194.76 35.40 194.70 33.90L194.70 33.90Q194.64 32.34 194.79 29.22Q194.94 26.10 195.15 23.76Q195.36 21.42 195.48 20.64L195.48 20.64Q195.54 20.10 195.60 19.62L195.60 19.62Q195.18 19.50 194.88 19.14ZM197.40 39L197.40 39Q197.70 38.58 198.12 38.04L198.12 38.04Q198.54 37.44 198.78 37.08L198.78 37.08Q198.96 36.78 199.44 35.76L199.44 35.76Q199.98 34.68 200.22 34.02L200.22 34.02Q200.46 33.30 200.70 32.70Q200.94 32.10 201.30 30.60L201.30 30.60Q201.72 29.22 201.84 28.44L201.84 28.44Q201.96 27.78 201.96 26.28L201.96 26.28Q201.96 24.72 201.90 24.06L201.90 24.06Q201.84 23.40 201.48 21.96L201.48 21.96Q201.18 20.58 200.97 20.07Q200.76 19.56 200.46 19.14L200.46 19.14Q200.34 18.90 199.74 18.60L199.74 18.60Q199.26 18.30 199.02 18.24L199.02 18.24Q198.78 18.24 198.42 18.30L198.42 18.30Q198.42 18.48 198.42 18.60L198.42 18.60L198.36 19.38Q198.24 20.16 198.12 20.94L198.12 20.94Q198.06 21.66 197.82 24L197.82 24Q197.58 26.28 197.46 29.34L197.46 29.34Q197.34 32.34 197.40 33.84L197.40 33.84Q197.46 35.40 197.40 38.64L197.40 38.64Q197.40 38.82 197.40 39ZM223.44 54.96L223.38 56.22Q223.32 57.48 223.32 57.78L223.32 57.78Q223.32 58.26 223.32 58.80L223.32 58.80Q223.26 59.16 223.32 59.46L223.32 59.46Q223.32 59.94 223.32 60.36L223.32 60.36L223.32 60.78Q223.32 61.32 222.93 61.71Q222.54 62.10 222.00 62.10Q221.46 62.10 221.04 61.71Q220.62 61.32 220.62 60.78L220.62 60.78L220.62 60.36Q220.62 60.06 220.62 59.70L220.62 59.70Q220.56 59.16 220.62 58.56L220.62 58.56Q220.62 58.14 220.62 57.78L220.62 57.78Q220.62 57.42 220.68 56.10L220.68 56.10Q220.74 55.14 220.74 54.96L220.74 54.96L220.74 53.94Q220.74 53.58 220.62 52.62Q220.50 51.66 220.32 51.12L220.32 51.12Q220.20 50.52 220.02 49.92L220.02 49.92Q219.90 49.50 219.48 48.54L219.48 48.54Q219.00 47.52 218.76 47.22L218.76 47.22Q218.46 46.74 218.10 46.26L218.10 46.26Q217.92 45.90 217.14 45.30L217.14 45.30Q216.18 44.58 215.82 44.34L215.82 44.34Q215.52 44.10 215.22 43.95Q214.92 43.80 214.20 43.50L214.20 43.50Q213.78 43.32 213.36 43.02L213.36 43.02Q213.30 43.92 213.30 44.94L213.30 44.94Q213.18 48.24 213.24 50.94L213.24 50.94Q213.24 53.64 213.24 54.60L213.24 54.60L213.24 57.48Q213.24 57.90 213.36 58.38L213.36 58.38Q213.42 59.04 213.48 59.58L213.48 59.58L213.48 60.12Q213.48 60.66 213.12 61.08Q212.76 61.50 212.19 61.53Q211.62 61.56 211.20 61.17Q210.78 60.78 210.78 60.24L210.78 60.24L210.78 59.70Q210.72 59.28 210.66 58.74L210.66 58.74Q210.54 58.08 210.54 57.48L210.54 57.48L210.54 54.60Q210.54 53.64 210.54 50.94L210.54 50.94Q210.48 48.24 210.60 44.88L210.60 44.88Q210.66 41.52 210.66 39.81Q210.66 38.10 210.54 36.30L210.54 36.30Q210.48 34.38 210.42 32.70Q210.36 31.02 210.18 27.90L210.18 27.90Q210.06 24.66 210.12 23.40L210.12 23.40Q210.18 22.26 210.24 21.36L210.24 21.36Q210.24 20.34 210.30 19.80L210.30 19.80Q210.36 19.26 210.42 18.66L210.42 18.66L210.48 18.06Q210.54 17.52 210.99 17.16Q211.44 16.80 211.98 16.86Q212.52 16.92 212.88 17.37Q213.24 17.82 213.18 18.36L213.18 18.36L213.12 18.96Q213.06 19.56 213.00 20.04L213.00 20.04Q212.94 20.52 212.94 21.42L212.94 21.42Q212.88 22.32 212.82 23.52L212.82 23.52Q212.76 24.66 212.88 27.78L212.88 27.78Q213.06 31.38 213.12 32.64L213.12 32.64Q213.18 34.26 213.24 36.12L213.24 36.12Q213.36 37.74 213.36 39.30L213.36 39.30Q213.60 39.12 213.78 38.88L213.78 38.88Q214.20 38.46 214.68 37.74L214.68 37.74Q215.22 36.96 215.52 36.48L215.52 36.48Q215.82 36.06 216.12 35.40L216.12 35.40Q216.48 34.74 217.26 33.18L217.26 33.18Q217.98 31.62 218.28 30.84L218.28 30.84Q218.58 30.06 218.76 29.16L218.76 29.16Q219.00 28.26 219.24 26.58L219.24 26.58Q219.48 24.78 219.60 23.91Q219.72 23.04 219.84 21.60L219.84 21.60Q219.96 20.16 220.02 19.68L220.02 19.68Q220.08 19.26 220.14 18.66L220.14 18.66L220.14 17.94Q220.20 17.40 220.62 17.04Q221.04 16.68 221.61 16.71Q222.18 16.74 222.54 17.19Q222.90 17.64 222.84 18.18L222.84 18.18L222.78 18.84Q222.72 19.56 222.66 20.04L222.66 20.04Q222.60 20.46 222.48 21.84L222.48 21.84Q222.36 23.34 222.24 24.24L222.24 24.24Q222.12 25.14 221.88 26.94L221.88 26.94Q221.64 28.80 221.40 29.76L221.40 29.76Q221.16 30.78 220.83 31.71Q220.50 32.64 219.66 34.32L219.66 34.32Q218.88 36 218.52 36.72L218.52 36.72Q218.10 37.44 217.80 37.98L217.80 37.98Q217.44 38.46 216.90 39.30L216.90 39.30Q216.30 40.20 215.70 40.80L215.70 40.80Q215.52 40.92 215.40 41.10L215.40 41.10Q216.12 41.40 216.48 41.58L216.48 41.58Q216.90 41.82 217.38 42.12L217.38 42.12Q217.80 42.42 218.76 43.20L218.76 43.20Q219.90 44.04 220.38 44.76L220.38 44.76Q220.68 45.24 220.98 45.66L220.98 45.66Q221.34 46.20 221.88 47.40L221.88 47.40Q222.48 48.54 222.66 49.26L222.66 49.26Q222.78 49.86 222.96 50.46L222.96 50.46Q223.14 51.18 223.26 52.26L223.26 52.26Q223.44 53.40 223.44 53.94L223.44 53.94L223.44 54.96ZM263.88 20.28L263.88 20.28L263.76 19.68Q263.64 19.26 263.46 18.84L263.46 18.84Q263.40 18.78 263.28 18.78L263.28 18.78Q262.92 18.72 262.80 18.72L262.80 18.72Q262.44 18.90 262.02 19.26L262.02 19.26Q261.54 19.62 260.88 20.40L260.88 20.40Q260.28 21.12 259.62 22.20L259.62 22.20Q259.02 23.34 257.76 26.46L257.76 26.46Q256.56 29.70 256.08 31.38Q255.60 33.06 255.24 34.80L255.24 34.80Q254.88 36.54 254.70 39.99Q254.52 43.44 254.64 44.88L254.64 44.88Q254.70 46.32 254.88 47.88Q255.06 49.44 255.30 50.88L255.30 50.88Q255.54 52.26 256.14 54.30L256.14 54.30Q256.80 56.34 257.16 56.94Q257.52 57.54 257.91 57.99Q258.30 58.44 258.66 58.74L258.66 58.74Q258.96 58.98 259.80 59.28L259.80 59.28Q260.46 59.46 260.76 59.40L260.76 59.40Q261.18 59.28 261.78 58.98L261.78 58.98Q262.38 58.68 263.40 57.54L263.40 57.54Q264.42 56.46 264.66 55.98L264.66 55.98Q264.90 55.26 265.20 54.48L265.20 54.48Q265.44 53.76 265.56 52.26L265.56 52.26Q265.74 50.70 265.68 49.92L265.68 49.92Q265.62 49.08 265.50 48.30Q265.38 47.52 265.29 46.83Q265.20 46.14 264.96 45.18L264.96 45.18Q264.72 44.16 264.66 43.62L264.66 43.62Q264.60 43.38 264.54 43.02L264.54 43.02Q264.18 42.96 263.64 42.96L263.64 42.96Q262.80 42.90 262.02 42.96L262.02 42.96L261.18 43.08Q260.64 43.14 260.19 42.78Q259.74 42.42 259.68 41.85Q259.62 41.28 259.98 40.86Q260.34 40.44 260.88 40.38L260.88 40.38L261.78 40.26Q262.74 40.20 263.76 40.26L263.76 40.26Q264.90 40.26 265.62 40.56L265.62 40.56Q266.76 40.98 267.12 42.12L267.12 42.12Q267.30 42.78 267.36 43.26L267.36 43.26Q267.36 43.68 267.60 44.64L267.60 44.64Q267.84 45.66 267.96 46.38Q268.08 47.10 268.20 47.94Q268.32 48.78 268.38 49.74L268.38 49.74Q268.44 50.70 268.26 52.50L268.26 52.50Q268.08 54.36 267.78 55.32L267.78 55.32Q267.48 56.22 267.12 57L267.12 57Q266.76 57.96 265.38 59.40L265.38 59.40Q264.06 60.84 263.10 61.32L263.10 61.32Q262.14 61.86 261.42 62.04L261.42 62.04Q260.46 62.28 258.96 61.86L258.96 61.86Q257.64 61.44 256.98 60.90L256.98 60.90Q256.38 60.42 255.84 59.76Q255.30 59.10 254.82 58.26Q254.34 57.42 253.62 55.14L253.62 55.14Q252.90 52.92 252.60 51.36L252.60 51.36Q252.36 49.80 252.18 48.18L252.18 48.18Q252.00 46.56 251.94 45.06L251.94 45.06Q251.82 43.50 252.03 39.84Q252.24 36.18 252.60 34.32L252.60 34.32Q252.96 32.40 253.47 30.60Q253.98 28.80 255.24 25.50L255.24 25.50Q256.56 22.20 257.28 20.88L257.28 20.88Q258.06 19.56 258.84 18.60L258.84 18.60Q259.68 17.70 260.34 17.16L260.34 17.16Q261.06 16.56 261.72 16.26L261.72 16.26Q262.68 15.84 263.94 16.14L263.94 16.14Q265.38 16.50 265.86 17.64L265.86 17.64Q266.16 18.30 266.34 19.02L266.34 19.02L266.52 19.62Q266.64 20.10 266.37 20.61Q266.10 21.12 265.56 21.24Q265.02 21.36 264.54 21.09Q264.06 20.82 263.88 20.28ZM272.40 17.64L272.40 17.64Q272.40 17.10 272.76 16.68Q273.12 16.26 273.66 16.20L273.66 16.20L274.26 16.20Q274.86 16.14 276.18 16.14L276.18 16.14Q277.50 16.14 278.16 16.26L278.16 16.26Q278.64 16.32 279.24 16.38L279.24 16.38Q279.78 16.44 280.26 16.50L280.26 16.50L280.80 16.56Q281.34 16.56 281.70 17.01Q282.06 17.46 282.03 18Q282.00 18.54 281.55 18.90Q281.10 19.26 280.56 19.26L280.56 19.26L280.02 19.20Q279.48 19.14 278.82 19.08L278.82 19.08Q278.22 18.96 277.74 18.90L277.74 18.90Q277.32 18.84 276.18 18.84L276.18 18.84Q275.88 18.84 275.64 18.84L275.64 18.84L275.58 19.32Q275.46 20.10 275.40 20.64L275.40 20.64Q275.40 21.06 275.34 22.74L275.34 22.74Q275.28 24.54 275.22 25.80L275.22 25.80Q275.10 26.94 275.10 28.14L275.10 28.14Q275.04 29.40 274.98 32.16L274.98 32.16Q274.86 34.86 274.80 36.36L274.80 36.36Q274.74 36.96 274.68 37.50L274.68 37.50L274.74 37.50L275.22 37.56Q275.64 37.56 276.48 37.50L276.48 37.50Q277.38 37.38 277.86 37.32L277.86 37.32L278.34 37.26Q278.88 37.20 279.33 37.56Q279.78 37.92 279.84 38.46Q279.90 39 279.57 39.45Q279.24 39.90 278.70 39.96L278.70 39.96L278.16 40.02Q277.62 40.08 276.72 40.14L276.72 40.14Q275.76 40.26 275.16 40.20L275.16 40.20L274.62 40.20Q274.56 40.20 274.56 40.20L274.56 40.20Q274.44 41.64 274.38 43.92L274.38 43.92Q274.20 46.92 274.20 48.06L274.20 48.06Q274.14 49.20 274.08 51.06L274.08 51.06Q274.08 52.92 274.11 53.67Q274.14 54.42 274.26 55.56Q274.38 56.70 274.44 57.18L274.44 57.18Q274.50 57.66 274.62 58.38L274.62 58.38Q274.62 58.68 274.68 58.98L274.68 58.98Q275.16 59.04 275.82 59.04L275.82 59.04Q276.96 59.04 277.68 59.04L277.68 59.04Q278.40 58.98 279.66 58.92L279.66 58.92L280.92 58.80Q281.46 58.74 281.88 59.13Q282.30 59.52 282.36 60.06Q282.42 60.60 282.03 61.02Q281.64 61.44 281.10 61.50L281.10 61.50L279.84 61.56Q278.58 61.68 277.80 61.71Q277.02 61.74 275.82 61.74L275.82 61.74Q274.56 61.74 273.72 61.56L273.72 61.56Q273.12 61.44 272.58 60.99Q272.04 60.54 272.04 59.70L272.04 59.70Q272.04 59.40 271.92 58.74L271.92 58.74Q271.80 57.96 271.74 57.54L271.74 57.54Q271.68 57 271.56 55.86L271.56 55.86Q271.44 54.60 271.41 53.79Q271.38 52.98 271.38 51.06L271.38 51.06Q271.44 49.08 271.50 47.91Q271.56 46.74 271.68 43.80L271.68 43.80Q271.80 40.86 271.92 39.30L271.92 39.30Q271.98 37.68 272.10 36.24L272.10 36.24Q272.16 34.74 272.28 32.04L272.28 32.04Q272.34 29.34 272.40 28.08L272.40 28.08Q272.40 26.82 272.52 25.56L272.52 25.56Q272.58 24.42 272.64 22.68L272.64 22.68Q272.70 20.88 272.76 20.28L272.76 20.28Q272.82 19.80 272.88 19.02L272.88 19.02L272.94 18.66Q272.46 18.24 272.40 17.64ZM288.48 15.06L288.48 15.06Q289.02 15.06 289.41 15.48Q289.80 15.90 289.80 16.44L289.80 16.44L289.80 16.80Q289.80 17.10 289.92 17.82L289.92 17.82Q290.10 18.66 290.28 19.62Q290.46 20.58 290.73 21.84Q291.00 23.10 291.72 26.22L291.72 26.22Q292.38 29.34 292.80 31.08L292.80 31.08Q293.22 32.82 293.70 34.50L293.70 34.50Q294.18 36.18 294.66 37.92L294.66 37.92Q295.14 39.66 295.80 42.84L295.80 42.84Q296.40 45.96 296.82 47.52L296.82 47.52Q297.24 49.08 297.54 50.40L297.54 50.40Q297.78 51.42 298.20 52.80L298.20 52.80Q298.26 51.36 298.32 48.78L298.32 48.78Q298.32 45.60 298.32 43.98L298.32 43.98Q298.26 42.36 298.26 40.68L298.26 40.68Q298.26 39 298.14 35.82L298.14 35.82Q298.02 32.64 297.96 31.44L297.96 31.44Q297.84 30.18 297.78 28.08L297.78 28.08Q297.72 25.98 297.72 25.20L297.72 25.20Q297.72 24.42 297.66 23.64L297.66 23.64Q297.66 22.86 297.66 21.54L297.66 21.54Q297.60 20.22 297.60 19.26L297.60 19.26L297.60 17.16Q297.60 16.62 297.99 16.23Q298.38 15.84 298.95 15.84Q299.52 15.84 299.91 16.23Q300.30 16.62 300.30 17.16L300.30 17.16L300.30 19.26Q300.30 20.16 300.36 21.48L300.36 21.48Q300.36 22.92 300.36 23.58L300.36 23.58Q300.42 24.42 300.42 25.20L300.42 25.20Q300.42 25.98 300.48 28.02L300.48 28.02Q300.54 30.06 300.60 31.20L300.60 31.20Q300.72 32.46 300.84 35.70Q300.96 38.94 300.96 40.68L300.96 40.68Q300.96 42.36 301.02 43.92L301.02 43.92Q301.02 45.54 300.99 48.81Q300.96 52.08 300.84 53.58L300.84 53.58Q300.78 55.14 300.72 56.34L300.72 56.34Q300.60 57.66 300.60 58.68L300.60 58.68Q300.54 59.82 300.48 60.48L300.48 60.48Q300.48 60.54 300.45 60.69Q300.42 60.84 300.27 61.20Q300.12 61.56 299.91 61.77Q299.70 61.98 299.28 61.98Q298.86 61.98 298.32 61.62L298.32 61.62Q297.96 61.44 297.81 61.23Q297.66 61.02 297.63 60.87Q297.60 60.72 297.60 60.57Q297.60 60.42 297.60 60.42L297.60 60.42Q297.48 59.88 297.18 58.80L297.18 58.80Q296.88 57.72 296.64 57.06L296.64 57.06Q296.46 56.34 295.86 54.39Q295.26 52.44 294.96 51.06L294.96 51.06Q294.60 49.74 294.18 48.18L294.18 48.18Q293.76 46.56 293.16 43.38L293.16 43.38Q292.50 40.26 292.02 38.64L292.02 38.64Q291.60 36.90 291.12 35.22L291.12 35.22Q290.64 33.48 290.19 31.71Q289.74 29.94 289.05 26.82Q288.36 23.70 288.06 22.38L288.06 22.38Q288.06 22.38 288.06 22.26L288.06 22.26Q288.00 23.58 288.00 26.70L288.00 26.70Q288.06 29.94 288.12 31.62L288.12 31.62Q288.24 33.78 288.24 35.52L288.24 35.52Q288.24 37.20 288.36 38.94L288.36 38.94Q288.42 40.68 288.48 42.54L288.48 42.54Q288.48 44.34 288.60 47.28Q288.72 50.22 288.78 51.45Q288.84 52.68 288.90 53.58L288.90 53.58Q288.96 54.42 288.96 55.08L288.96 55.08Q289.02 55.74 289.02 56.40L289.02 56.40Q289.08 57.06 289.14 57.96L289.14 57.96Q289.20 58.92 289.20 59.46L289.20 59.46L289.20 60Q289.20 60.54 288.78 60.93Q288.36 61.32 287.82 61.32Q287.28 61.32 286.89 60.93Q286.50 60.54 286.50 60L286.50 60L286.50 59.46Q286.50 59.04 286.44 58.14L286.44 58.14Q286.38 57.18 286.32 56.52L286.32 56.52Q286.32 55.92 286.26 55.26L286.26 55.26Q286.26 54.54 286.20 53.70L286.20 53.70Q286.14 52.80 286.08 51.60L286.08 51.60Q286.02 50.34 285.90 47.37Q285.78 44.40 285.78 42.60L285.78 42.60Q285.72 40.80 285.66 39.06L285.66 39.06Q285.54 37.26 285.54 35.52L285.54 35.52Q285.54 33.84 285.42 31.98L285.42 31.98Q285.36 30.06 285.33 26.73Q285.30 23.40 285.36 22.08L285.36 22.08Q285.42 20.70 285.48 19.74L285.48 19.74Q285.60 18.78 285.60 18.12L285.60 18.12Q285.66 17.22 285.90 16.50L285.90 16.50L286.08 15.96Q286.20 15.42 286.71 15.15Q287.22 14.88 287.76 15.06L287.76 15.06Q287.88 15.12 288.00 15.18L288.00 15.18Q288.24 15.06 288.48 15.06ZM305.04 17.64L305.04 17.64Q305.04 17.10 305.40 16.68Q305.76 16.26 306.30 16.20L306.30 16.20L306.90 16.20Q307.50 16.14 308.82 16.14L308.82 16.14Q310.14 16.14 310.80 16.26L310.80 16.26Q311.28 16.32 311.88 16.38L311.88 16.38Q312.42 16.44 312.90 16.50L312.90 16.50L313.44 16.56Q313.98 16.56 314.34 17.01Q314.70 17.46 314.67 18Q314.64 18.54 314.19 18.90Q313.74 19.26 313.20 19.26L313.20 19.26L312.66 19.20Q312.12 19.14 311.46 19.08L311.46 19.08Q310.86 18.96 310.38 18.90L310.38 18.90Q309.96 18.84 308.82 18.84L308.82 18.84Q308.52 18.84 308.28 18.84L308.28 18.84L308.22 19.32Q308.10 20.10 308.04 20.64L308.04 20.64Q308.04 21.06 307.98 22.74L307.98 22.74Q307.92 24.54 307.86 25.80L307.86 25.80Q307.74 26.94 307.74 28.14L307.74 28.14Q307.68 29.40 307.62 32.16L307.62 32.16Q307.50 34.86 307.44 36.36L307.44 36.36Q307.38 36.96 307.32 37.50L307.32 37.50L307.38 37.50L307.86 37.56Q308.28 37.56 309.12 37.50L309.12 37.50Q310.02 37.38 310.50 37.32L310.50 37.32L310.98 37.26Q311.52 37.20 311.97 37.56Q312.42 37.92 312.48 38.46Q312.54 39 312.21 39.45Q311.88 39.90 311.34 39.96L311.34 39.96L310.80 40.02Q310.26 40.08 309.36 40.14L309.36 40.14Q308.40 40.26 307.80 40.20L307.80 40.20L307.26 40.20Q307.20 40.20 307.20 40.20L307.20 40.20Q307.08 41.64 307.02 43.92L307.02 43.92Q306.84 46.92 306.84 48.06L306.84 48.06Q306.78 49.20 306.72 51.06L306.72 51.06Q306.72 52.92 306.75 53.67Q306.78 54.42 306.90 55.56Q307.02 56.70 307.08 57.18L307.08 57.18Q307.14 57.66 307.26 58.38L307.26 58.38Q307.26 58.68 307.32 58.98L307.32 58.98Q307.80 59.04 308.46 59.04L308.46 59.04Q309.60 59.04 310.32 59.04L310.32 59.04Q311.04 58.98 312.30 58.92L312.30 58.92L313.56 58.80Q314.10 58.74 314.52 59.13Q314.94 59.52 315 60.06Q315.06 60.60 314.67 61.02Q314.28 61.44 313.74 61.50L313.74 61.50L312.48 61.56Q311.22 61.68 310.44 61.71Q309.66 61.74 308.46 61.74L308.46 61.74Q307.20 61.74 306.36 61.56L306.36 61.56Q305.76 61.44 305.22 60.99Q304.68 60.54 304.68 59.70L304.68 59.70Q304.68 59.40 304.56 58.74L304.56 58.74Q304.44 57.96 304.38 57.54L304.38 57.54Q304.32 57 304.20 55.86L304.20 55.86Q304.08 54.60 304.05 53.79Q304.02 52.98 304.02 51.06L304.02 51.06Q304.08 49.08 304.14 47.91Q304.20 46.74 304.32 43.80L304.32 43.80Q304.44 40.86 304.56 39.30L304.56 39.30Q304.62 37.68 304.74 36.24L304.74 36.24Q304.80 34.74 304.92 32.04L304.92 32.04Q304.98 29.34 305.04 28.08L305.04 28.08Q305.04 26.82 305.16 25.56L305.16 25.56Q305.22 24.42 305.28 22.68L305.28 22.68Q305.34 20.88 305.40 20.28L305.40 20.28Q305.46 19.80 305.52 19.02L305.52 19.02L305.58 18.66Q305.10 18.24 305.04 17.64ZM318.78 19.14L318.78 19.14Q318.42 18.72 318.51 18.15Q318.60 17.58 319.02 17.22L319.02 17.22L319.68 16.74Q320.52 16.02 321.54 15.72L321.54 15.72Q322.50 15.48 323.10 15.54L323.10 15.54Q323.82 15.60 324.96 16.20L324.96 16.20Q326.10 16.86 326.64 17.64L326.64 17.64Q327.06 18.30 327.36 19.05Q327.66 19.80 328.02 21.42L328.02 21.42Q328.38 22.98 328.44 23.82L328.44 23.82Q328.56 24.60 328.56 26.28L328.56 26.28Q328.56 27.96 328.38 28.86L328.38 28.86Q328.26 29.76 327.84 31.32L327.84 31.32Q327.42 32.88 327.18 33.57Q326.94 34.26 326.64 34.98Q326.34 35.70 325.80 36.90L325.80 36.90Q325.26 38.10 324.96 38.58L324.96 38.58Q324.66 39 324.12 39.66L324.12 39.66Q323.70 40.26 323.46 40.62L323.46 40.62Q323.22 40.92 322.98 41.28L322.98 41.28Q323.28 41.82 323.82 42.42L323.82 42.42Q324.66 43.38 324.99 43.83Q325.32 44.28 325.92 45.30L325.92 45.30Q326.58 46.26 326.88 46.83Q327.18 47.40 327.66 48.48L327.66 48.48Q328.14 49.62 328.56 50.70L328.56 50.70Q328.98 51.90 329.10 52.44L329.10 52.44Q329.28 52.92 329.55 53.97Q329.82 55.02 329.94 55.44Q330.06 55.86 330.30 56.82L330.30 56.82Q330.60 57.84 330.72 58.68L330.72 58.68Q330.78 59.34 330.84 59.76L330.84 59.76L330.96 60.24Q331.14 60.78 330.84 61.26Q330.54 61.74 330 61.86Q329.46 61.98 328.98 61.71Q328.50 61.44 328.38 60.90L328.38 60.90L328.26 60.36Q328.08 59.76 328.02 58.98L328.02 58.98Q327.96 58.38 327.72 57.60L327.72 57.60Q327.42 56.64 327.30 56.16L327.30 56.16Q327.18 55.74 326.94 54.66L326.94 54.66Q326.70 53.76 326.52 53.16L326.52 53.16Q326.40 52.68 326.04 51.66L326.04 51.66Q325.62 50.58 325.14 49.56L325.14 49.56Q324.72 48.54 324.48 48.09Q324.24 47.64 323.67 46.74Q323.10 45.84 322.80 45.45Q322.50 45.06 321.78 44.22L321.78 44.22Q321.48 43.80 321.18 43.50L321.18 43.50Q321.18 43.80 321.18 44.04L321.18 44.04Q321.06 46.20 321 48.78L321 48.78Q320.94 51.36 320.82 53.16L320.82 53.16Q320.70 54.90 320.70 55.62L320.70 55.62Q320.64 56.40 320.64 57.42L320.64 57.42Q320.64 58.32 320.70 58.98L320.70 58.98L320.82 59.76Q320.88 60.30 320.55 60.75Q320.22 61.20 319.68 61.26Q319.14 61.32 318.69 60.99Q318.24 60.66 318.12 60.12L318.12 60.12L318.06 59.34Q317.94 58.50 317.94 57.36L317.94 57.36Q317.94 56.34 318 55.56L318 55.56Q318 54.78 318.12 52.98L318.12 52.98Q318.24 51.24 318.30 48.72L318.30 48.72Q318.36 46.14 318.48 43.92L318.48 43.92Q318.60 41.76 318.63 38.58Q318.66 35.40 318.60 33.90L318.60 33.90Q318.54 32.34 318.69 29.22Q318.84 26.10 319.05 23.76Q319.26 21.42 319.38 20.64L319.38 20.64Q319.44 20.10 319.50 19.62L319.50 19.62Q319.08 19.50 318.78 19.14ZM321.30 39L321.30 39Q321.60 38.58 322.02 38.04L322.02 38.04Q322.44 37.44 322.68 37.08L322.68 37.08Q322.86 36.78 323.34 35.76L323.34 35.76Q323.88 34.68 324.12 34.02L324.12 34.02Q324.36 33.30 324.60 32.70Q324.84 32.10 325.20 30.60L325.20 30.60Q325.62 29.22 325.74 28.44L325.74 28.44Q325.86 27.78 325.86 26.28L325.86 26.28Q325.86 24.72 325.80 24.06L325.80 24.06Q325.74 23.40 325.38 21.96L325.38 21.96Q325.08 20.58 324.87 20.07Q324.66 19.56 324.36 19.14L324.36 19.14Q324.24 18.90 323.64 18.60L323.64 18.60Q323.16 18.30 322.92 18.24L322.92 18.24Q322.68 18.24 322.32 18.30L322.32 18.30Q322.32 18.48 322.32 18.60L322.32 18.60L322.26 19.38Q322.14 20.16 322.02 20.94L322.02 20.94Q321.96 21.66 321.72 24L321.72 24Q321.48 26.28 321.36 29.34L321.36 29.34Q321.24 32.34 321.30 33.84L321.30 33.84Q321.36 35.40 321.30 38.64L321.30 38.64Q321.30 38.82 321.30 39ZM334.02 59.28L334.02 59.28L334.14 58.08Q334.26 56.70 334.50 55.32L334.50 55.32Q334.80 53.94 335.16 51.81Q335.52 49.68 336.21 46.92Q336.90 44.16 337.74 41.16L337.74 41.16Q338.58 38.22 339.90 33.12L339.90 33.12Q341.22 28.08 341.55 26.43Q341.88 24.78 342.06 23.40L342.06 23.40Q342.30 21.84 342.66 20.58L342.66 20.58Q343.02 19.38 343.14 18.60L343.14 18.60Q343.38 17.76 343.56 16.98L343.56 16.98Q343.50 16.86 343.47 16.65Q343.44 16.44 343.74 16.02Q344.04 15.60 344.88 15.54L344.88 15.54Q345.84 15.42 346.23 15.81Q346.62 16.20 346.50 16.68L346.50 16.68L346.44 17.16Q346.50 17.88 346.50 18.66L346.50 18.66Q346.56 19.50 346.68 22.56L346.68 22.56Q346.74 25.56 346.86 27.48Q346.98 29.40 347.16 31.32L347.16 31.32Q347.34 33.30 347.52 35.34L347.52 35.34Q347.64 37.32 347.82 39.48L347.82 39.48Q348 41.64 348.30 45L348.30 45Q348.66 48.36 348.84 49.68Q349.02 51 349.20 52.14L349.20 52.14Q349.44 53.34 349.56 54.30L349.56 54.30Q349.68 55.14 349.98 56.40L349.98 56.40Q350.22 57.66 350.34 58.14L350.34 58.14Q350.46 58.74 350.58 59.34L350.58 59.34L350.64 59.88Q350.76 60.42 350.43 60.90Q350.10 61.38 349.56 61.47Q349.02 61.56 348.54 61.23Q348.06 60.90 348 60.36L348 60.36L347.88 59.76Q347.82 59.22 347.70 58.74L347.70 58.74Q347.58 58.20 347.34 56.94L347.34 56.94Q347.04 55.62 346.86 54.66L346.86 54.66Q346.74 53.76 346.56 52.62L346.56 52.62Q346.32 51.42 346.14 50.04Q345.96 48.66 345.60 45.24L345.60 45.24Q345.54 44.58 345.48 43.98L345.48 43.98L345.12 43.98Q344.58 44.04 343.38 44.04L343.38 44.04Q342.30 44.04 341.94 44.04L341.94 44.04Q341.46 44.10 340.80 44.16L340.80 44.16Q340.14 44.16 339.78 44.22L339.78 44.22L339.72 44.22Q339.24 45.96 338.82 47.58L338.82 47.58Q338.16 50.28 337.80 52.32L337.80 52.32Q337.44 54.42 337.20 55.80L337.20 55.80Q336.90 57.12 336.84 58.26L336.84 58.26L336.72 59.52Q336.66 60.06 336.24 60.45Q335.82 60.84 335.25 60.78Q334.68 60.72 334.32 60.30Q333.96 59.88 334.02 59.28ZM340.44 41.46L340.44 41.46Q340.56 41.46 340.62 41.46L340.62 41.46Q341.28 41.40 341.64 41.40L341.64 41.40Q342.18 41.34 343.38 41.34L343.38 41.34Q344.52 41.34 345 41.28L345 41.28L345.24 41.28Q345.18 40.44 345.12 39.72L345.12 39.72Q344.94 37.56 344.82 35.52L344.82 35.52Q344.64 33.54 344.52 31.56L344.52 31.56Q344.34 29.58 344.22 27.66L344.22 27.66Q344.16 27.36 344.16 27.06L344.16 27.06Q343.80 28.86 342.48 33.78L342.48 33.78Q341.28 38.58 340.44 41.46ZM355.02 16.56L355.02 16.56L355.38 16.56Q355.74 16.56 356.70 16.44L356.70 16.44Q357.84 16.38 358.50 16.38L358.50 16.38Q359.16 16.38 359.82 16.32L359.82 16.32Q360.60 16.26 361.56 16.26L361.56 16.26Q362.40 16.32 363.09 16.35Q363.78 16.38 364.38 16.44L364.38 16.44Q364.86 16.44 365.22 16.44L365.22 16.44L365.70 16.38Q366.24 16.32 366.66 16.68Q367.08 17.04 367.14 17.61Q367.20 18.18 366.84 18.60Q366.48 19.02 365.94 19.08L365.94 19.08L365.46 19.14Q364.86 19.14 364.14 19.14L364.14 19.14Q363.60 19.08 362.94 19.02L362.94 19.02Q362.34 19.02 361.68 18.96L361.68 18.96Q361.86 19.74 361.80 20.76L361.80 20.76Q361.80 21.60 361.80 22.20L361.80 22.20L361.80 23.52Q361.80 24.18 361.74 25.83Q361.68 27.48 361.68 28.44L361.68 28.44Q361.62 29.28 361.56 30.42L361.56 30.42Q361.56 31.38 361.56 33.42L361.56 33.42Q361.56 35.46 361.56 36.54L361.56 36.54Q361.56 37.62 361.62 38.52L361.62 38.52Q361.62 39.48 361.62 40.38L361.62 40.38Q361.62 41.28 361.56 42.96L361.56 42.96Q361.56 44.58 361.56 45.30L361.56 45.30L361.56 47.52Q361.56 48.96 361.56 49.62L361.56 49.62Q361.56 50.34 361.56 51L361.56 51Q361.56 51.54 361.44 52.68L361.44 52.68Q361.38 53.64 361.38 54L361.38 54Q361.38 54 361.38 54.90L361.38 54.90Q361.38 55.44 361.32 56.40L361.32 56.40Q361.20 57.36 361.14 58.02L361.14 58.02Q361.08 58.62 361.08 59.04L361.08 59.04L361.08 60.36Q361.08 60.90 360.66 61.29Q360.24 61.68 359.70 61.68Q359.16 61.68 358.77 61.29Q358.38 60.90 358.38 60.36L358.38 60.36L358.38 59.04Q358.38 58.44 358.44 57.72L358.44 57.72Q358.50 57.12 358.62 56.16L358.62 56.16Q358.68 55.32 358.68 54.90L358.68 54.90L358.68 54Q358.68 53.52 358.74 52.44L358.74 52.44Q358.86 51.48 358.86 50.88L358.86 50.88Q358.86 50.28 358.86 49.68L358.86 49.68Q358.86 48.96 358.86 47.52L358.86 47.52L358.86 45.30Q358.86 44.58 358.86 42.90L358.86 42.90Q358.92 41.28 358.92 40.41Q358.92 39.54 358.92 38.58L358.92 38.58Q358.86 36.84 358.86 36.60L358.86 36.60Q358.86 35.52 358.86 33.42L358.86 33.42Q358.86 31.26 358.86 30.30L358.86 30.30Q358.92 29.88 358.95 29.19Q358.98 28.50 358.98 28.32L358.98 28.32Q358.98 27.42 359.04 25.77Q359.10 24.12 359.10 23.52L359.10 23.52L359.10 22.20Q359.10 21.54 359.10 20.64L359.10 20.64Q359.16 20.04 359.04 19.74L359.04 19.74L358.92 19.20Q358.86 19.14 358.86 19.08L358.86 19.08Q358.74 19.08 358.62 19.08L358.62 19.08Q357.96 19.08 356.94 19.14L356.94 19.14Q355.80 19.26 355.38 19.26L355.38 19.26L355.02 19.26Q354.42 19.26 354.03 18.84Q353.64 18.42 353.64 17.88Q353.64 17.34 354.03 16.95Q354.42 16.56 355.02 16.56ZM377.82 18.96L377.82 18.96Q377.46 19.14 377.16 19.14L377.16 19.14L376.62 19.20Q376.50 19.20 376.44 19.20L376.44 19.20Q376.26 19.32 376.08 19.62L376.08 19.62Q375.72 20.04 375.24 20.64L375.24 20.64Q374.88 21.12 374.52 21.78L374.52 21.78Q374.16 22.56 373.92 23.16Q373.68 23.76 373.50 24.48L373.50 24.48Q373.26 25.08 373.26 25.68L373.26 25.68Q373.20 26.40 373.08 28.17Q372.96 29.94 372.90 30.78L372.90 30.78Q372.84 31.68 372.84 32.46L372.84 32.46L372.84 36.12Q372.84 36.96 372.90 37.92L372.90 37.92Q372.96 38.82 373.08 40.62L373.08 40.62Q373.20 42.48 373.20 43.32L373.20 43.32Q373.14 44.10 373.20 44.82L373.20 44.82Q373.20 45.54 373.26 46.20L373.26 46.20Q373.38 46.98 373.44 47.70L373.44 47.70Q373.50 48.36 373.68 49.80L373.68 49.80Q373.86 51.18 373.92 51.66L373.92 51.66Q374.04 52.14 374.22 52.74L374.22 52.74Q374.40 53.34 374.52 53.88L374.52 53.88Q374.64 54.36 374.94 54.96L374.94 54.96Q375.24 55.62 375.54 56.10L375.54 56.10Q375.84 56.58 376.14 57.06L376.14 57.06Q376.38 57.48 376.68 57.90L376.68 57.90Q376.86 58.08 377.16 58.29Q377.46 58.50 377.70 58.56L377.70 58.56Q378 58.62 378.48 58.56L378.48 58.56Q378.84 58.56 379.14 58.38L379.14 58.38Q379.50 58.08 380.04 57.45Q380.58 56.82 380.76 56.34L380.76 56.34Q380.94 55.74 381.06 55.38L381.06 55.38Q381.18 55.02 381.36 54.12L381.36 54.12Q381.60 53.10 381.78 52.56L381.78 52.56Q381.90 52.08 381.96 51.66L381.96 51.66Q382.08 51.12 382.26 50.10L382.26 50.10Q382.44 49.08 382.50 48.60L382.50 48.60Q382.56 48 382.62 47.52L382.62 47.52Q382.68 46.98 382.92 45.72L382.92 45.72Q383.10 44.52 383.16 43.86L383.16 43.86Q383.16 43.08 383.25 42.36Q383.34 41.64 383.46 41.04L383.46 41.04Q383.52 40.56 383.52 40.08L383.52 40.08Q383.52 39.54 383.58 38.25Q383.64 36.96 383.70 36.12L383.70 36.12Q383.70 35.34 383.70 34.68L383.70 34.68L383.70 33.30Q383.70 32.64 383.58 31.38L383.58 31.38Q383.40 30.06 383.34 29.52L383.34 29.52Q383.22 28.92 383.16 28.44L383.16 28.44Q383.10 27.96 382.98 26.94Q382.86 25.92 382.80 25.44L382.80 25.44Q382.74 25.02 382.62 24.54L382.62 24.54Q382.56 24 382.44 23.52L382.44 23.52Q382.44 23.16 382.20 22.68L382.20 22.68Q382.02 22.08 381.78 21.54L381.78 21.54Q381.60 21.12 381.24 20.46L381.24 20.46Q380.94 19.98 380.76 19.86L380.76 19.86Q380.46 19.62 379.98 19.44L379.98 19.44Q379.32 19.14 378.90 19.02L378.90 19.02Q378.66 18.90 378.54 18.90L378.54 18.90Q378.18 18.90 377.82 18.96ZM376.56 16.50L376.68 16.50Q376.98 16.32 377.28 16.32L377.28 16.32L377.64 16.26Q378.06 16.26 378.42 16.20L378.42 16.20Q379.08 16.20 379.74 16.44L379.74 16.44Q380.28 16.62 381 16.92L381 16.92Q381.90 17.28 382.38 17.70L382.38 17.70Q382.98 18.12 383.58 19.08L383.58 19.08Q384.06 19.92 384.30 20.52L384.30 20.52Q384.48 21.06 384.72 21.72L384.72 21.72Q385.02 22.50 385.14 23.16L385.14 23.16Q385.20 23.58 385.26 24.06L385.26 24.06Q385.38 24.54 385.44 25.08L385.44 25.08Q385.56 25.56 385.68 26.58L385.68 26.58Q385.80 27.60 385.86 28.14L385.86 28.14Q385.92 28.56 385.98 29.10L385.98 29.10Q386.10 29.64 386.28 31.08L386.28 31.08Q386.40 32.52 386.40 33.30L386.40 33.30L386.40 34.68Q386.40 35.40 386.34 36.24L386.34 36.24Q386.34 37.08 386.28 38.34L386.28 38.34Q386.22 39.60 386.22 40.14L386.22 40.14Q386.22 40.80 386.10 41.46L386.10 41.46Q386.04 42 385.92 42.66L385.92 42.66Q385.86 43.32 385.86 43.98L385.86 43.98Q385.80 44.82 385.56 46.14L385.56 46.14Q385.38 47.34 385.32 47.82L385.32 47.82Q385.26 48.36 385.20 48.90L385.20 48.90Q385.14 49.50 384.90 50.58L384.90 50.58Q384.72 51.60 384.66 52.08L384.66 52.08Q384.54 52.68 384.36 53.34L384.36 53.34Q384.24 53.82 384 54.66L384 54.66Q383.82 55.68 383.67 56.13Q383.52 56.58 383.28 57.30L383.28 57.30Q382.92 58.20 382.14 59.16L382.14 59.16Q381.36 60.12 380.58 60.60L380.58 60.60Q379.80 61.14 378.78 61.26L378.78 61.26Q377.88 61.38 377.16 61.20L377.16 61.20Q376.38 61.02 375.66 60.57Q374.94 60.12 374.52 59.46L374.52 59.46Q374.16 58.98 373.86 58.50L373.86 58.50Q373.56 58.02 373.20 57.48L373.20 57.48Q372.84 56.88 372.48 56.10L372.48 56.10Q372.12 55.26 371.94 54.66L371.94 54.66Q371.76 54.12 371.58 53.46L371.58 53.46Q371.40 52.80 371.28 52.20L371.28 52.20Q371.16 51.60 370.98 50.10L370.98 50.10Q370.80 48.66 370.74 47.94L370.74 47.94Q370.68 47.28 370.56 46.50L370.56 46.50Q370.50 45.72 370.50 44.88L370.50 44.88Q370.44 44.10 370.50 43.26L370.50 43.26Q370.50 42.60 370.38 40.80L370.38 40.80Q370.26 39 370.20 38.04L370.20 38.04Q370.14 37.02 370.14 36.12L370.14 36.12L370.14 32.46Q370.14 31.56 370.20 30.66L370.20 30.66Q370.26 29.76 370.38 27.99Q370.50 26.22 370.56 25.44L370.56 25.44Q370.62 24.54 370.86 23.70L370.86 23.70Q371.10 22.92 371.40 22.17Q371.70 21.42 372.12 20.58L372.12 20.58Q372.60 19.62 373.14 18.96L373.14 18.96Q373.62 18.42 373.92 18L373.92 18Q374.34 17.34 374.94 16.98L374.94 16.98Q375.66 16.50 376.56 16.50L376.56 16.50ZM390.24 19.14L390.24 19.14Q389.88 18.72 389.97 18.15Q390.06 17.58 390.48 17.22L390.48 17.22L391.14 16.74Q391.98 16.02 393 15.72L393 15.72Q393.96 15.48 394.56 15.54L394.56 15.54Q395.28 15.60 396.42 16.20L396.42 16.20Q397.56 16.86 398.10 17.64L398.10 17.64Q398.52 18.30 398.82 19.05Q399.12 19.80 399.48 21.42L399.48 21.42Q399.84 22.98 399.90 23.82L399.90 23.82Q400.02 24.60 400.02 26.28L400.02 26.28Q400.02 27.96 399.84 28.86L399.84 28.86Q399.72 29.76 399.30 31.32L399.30 31.32Q398.88 32.88 398.64 33.57Q398.40 34.26 398.10 34.98Q397.80 35.70 397.26 36.90L397.26 36.90Q396.72 38.10 396.42 38.58L396.42 38.58Q396.12 39 395.58 39.66L395.58 39.66Q395.16 40.26 394.92 40.62L394.92 40.62Q394.68 40.92 394.44 41.28L394.44 41.28Q394.74 41.82 395.28 42.42L395.28 42.42Q396.12 43.38 396.45 43.83Q396.78 44.28 397.38 45.30L397.38 45.30Q398.04 46.26 398.34 46.83Q398.64 47.40 399.12 48.48L399.12 48.48Q399.60 49.62 400.02 50.70L400.02 50.70Q400.44 51.90 400.56 52.44L400.56 52.44Q400.74 52.92 401.01 53.97Q401.28 55.02 401.40 55.44Q401.52 55.86 401.76 56.82L401.76 56.82Q402.06 57.84 402.18 58.68L402.18 58.68Q402.24 59.34 402.30 59.76L402.30 59.76L402.42 60.24Q402.60 60.78 402.30 61.26Q402 61.74 401.46 61.86Q400.92 61.98 400.44 61.71Q399.96 61.44 399.84 60.90L399.84 60.90L399.72 60.36Q399.54 59.76 399.48 58.98L399.48 58.98Q399.42 58.38 399.18 57.60L399.18 57.60Q398.88 56.64 398.76 56.16L398.76 56.16Q398.64 55.74 398.40 54.66L398.40 54.66Q398.16 53.76 397.98 53.16L397.98 53.16Q397.86 52.68 397.50 51.66L397.50 51.66Q397.08 50.58 396.60 49.56L396.60 49.56Q396.18 48.54 395.94 48.09Q395.70 47.64 395.13 46.74Q394.56 45.84 394.26 45.45Q393.96 45.06 393.24 44.22L393.24 44.22Q392.94 43.80 392.64 43.50L392.64 43.50Q392.64 43.80 392.64 44.04L392.64 44.04Q392.52 46.20 392.46 48.78L392.46 48.78Q392.40 51.36 392.28 53.16L392.28 53.16Q392.16 54.90 392.16 55.62L392.16 55.62Q392.10 56.40 392.10 57.42L392.10 57.42Q392.10 58.32 392.16 58.98L392.16 58.98L392.28 59.76Q392.34 60.30 392.01 60.75Q391.68 61.20 391.14 61.26Q390.60 61.32 390.15 60.99Q389.70 60.66 389.58 60.12L389.58 60.12L389.52 59.34Q389.40 58.50 389.40 57.36L389.40 57.36Q389.40 56.34 389.46 55.56L389.46 55.56Q389.46 54.78 389.58 52.98L389.58 52.98Q389.70 51.24 389.76 48.72L389.76 48.72Q389.82 46.14 389.94 43.92L389.94 43.92Q390.06 41.76 390.09 38.58Q390.12 35.40 390.06 33.90L390.06 33.90Q390 32.34 390.15 29.22Q390.30 26.10 390.51 23.76Q390.72 21.42 390.84 20.64L390.84 20.64Q390.90 20.10 390.96 19.62L390.96 19.62Q390.54 19.50 390.24 19.14ZM392.76 39L392.76 39Q393.06 38.58 393.48 38.04L393.48 38.04Q393.90 37.44 394.14 37.08L394.14 37.08Q394.32 36.78 394.80 35.76L394.80 35.76Q395.34 34.68 395.58 34.02L395.58 34.02Q395.82 33.30 396.06 32.70Q396.30 32.10 396.66 30.60L396.66 30.60Q397.08 29.22 397.20 28.44L397.20 28.44Q397.32 27.78 397.32 26.28L397.32 26.28Q397.32 24.72 397.26 24.06L397.26 24.06Q397.20 23.40 396.84 21.96L396.84 21.96Q396.54 20.58 396.33 20.07Q396.12 19.56 395.82 19.14L395.82 19.14Q395.70 18.90 395.10 18.60L395.10 18.60Q394.62 18.30 394.38 18.24L394.38 18.24Q394.14 18.24 393.78 18.30L393.78 18.30Q393.78 18.48 393.78 18.60L393.78 18.60L393.72 19.38Q393.60 20.16 393.48 20.94L393.48 20.94Q393.42 21.66 393.18 24L393.18 24Q392.94 26.28 392.82 29.34L392.82 29.34Q392.70 32.34 392.76 33.84L392.76 33.84Q392.82 35.40 392.76 38.64L392.76 38.64Q392.76 38.82 392.76 39Z" fill="currentColor"/>
</svg>